<?xml version="1.0" encoding="UTF-8"?>
<!DOCTYPE svg PUBLIC "-//W3C//DTD SVG 1.1//EN" "http://www.w3.org/Graphics/SVG/1.1/DTD/svg11.dtd">
<!-- Creator: CorelDRAW 2020 (64-Bit) -->
<svg xmlns="http://www.w3.org/2000/svg" xml:space="preserve" width="121px" height="50px" version="1.1" style="shape-rendering:geometricPrecision; text-rendering:geometricPrecision; image-rendering:optimizeQuality; fill-rule:evenodd; clip-rule:evenodd"
viewBox="0 0 121 49.89"
 xmlns:xlink="http://www.w3.org/1999/xlink"
 xmlns:xodm="http://www.corel.com/coreldraw/odm/2003">
 <defs>
  <style type="text/css">
   <![CDATA[
    .fil0 {fill:#99243F}
    .fil2 {fill:#FEFEFE}
    .fil1 {fill:#FEFEFE;fill-rule:nonzero}
   ]]>
  </style>
 </defs>
 <g id="Layer_x0020_1">
  <metadata id="CorelCorpID_0Corel-Layer"/>
  <g id="_2203782658544">
   <path class="fil0" d="M60.5 0c33.41,0 60.5,11.17 60.5,24.94 0,13.78 -27.09,24.95 -60.5,24.95 -33.41,0 -60.5,-11.17 -60.5,-24.95 0,-13.77 27.09,-24.94 60.5,-24.94z"/>
   <g>
    <path class="fil1" d="M43.23 34.71l0.83 -23.23 3.94 0 1.3 23.22 -6.07 0.01zm25.96 -8.5l3.85 0.54c-0.43,2.64 -1.5,4.71 -3.24,6.21 -1.74,1.5 -3.88,2.25 -6.41,2.25 -3.17,0 -5.72,-1.04 -7.65,-3.12 -1.93,-2.07 -2.9,-5.04 -2.9,-8.9 0,-2.51 0.42,-4.7 1.25,-6.58 0.83,-1.87 2.09,-3.28 3.79,-4.21 1.7,-0.94 3.54,-1.41 5.54,-1.41 2.51,0 4.58,0.63 6.18,1.91 1.6,1.27 2.63,3.09 3.08,5.43l-3.81 0.58c-0.36,-1.56 -1,-2.73 -1.94,-3.52 -0.92,-0.78 -2.04,-1.18 -3.36,-1.18 -1.98,0 -3.59,0.71 -4.84,2.13 -1.24,1.42 -1.86,3.66 -1.86,6.74 0,3.11 0.6,5.37 1.8,6.78 1.2,1.41 2.76,2.12 4.67,2.12 1.56,0 2.85,-0.47 3.88,-1.41 1.03,-0.94 1.69,-2.4 1.97,-4.36zm5.64 1.57l3.89 -0.63c0.22,1.56 0.83,2.75 1.83,3.59 1,0.83 2.4,1.24 4.19,1.24 1.82,0 3.16,-0.36 4.04,-1.1 0.87,-0.73 1.31,-1.6 1.31,-2.59 0,-0.89 -0.39,-1.59 -1.18,-2.1 -0.55,-0.35 -1.89,-0.79 -4.03,-1.33 -2.88,-0.73 -4.87,-1.35 -5.99,-1.88 -1.11,-0.54 -1.95,-1.27 -2.53,-2.21 -0.57,-0.93 -0.86,-1.97 -0.86,-3.11 0,-1.03 0.24,-1.99 0.71,-2.87 0.47,-0.88 1.12,-1.61 1.93,-2.19 0.61,-0.45 1.45,-0.83 2.5,-1.14 1.06,-0.32 2.19,-0.47 3.39,-0.47 1.82,0 3.42,0.26 4.79,0.79 1.38,0.52 2.4,1.24 3.06,2.13 0.65,0.91 1.1,2.11 1.35,3.61l-3.85 0.54c-0.18,-1.21 -0.68,-2.16 -1.52,-2.83 -0.83,-0.68 -2.01,-1.02 -3.54,-1.02 -1.8,0 -3.09,0.3 -3.86,0.9 -0.77,0.59 -1.16,1.29 -1.16,2.09 0,0.51 0.16,0.97 0.48,1.38 0.32,0.42 0.82,0.77 1.51,1.05 0.39,0.15 1.54,0.48 3.47,1 2.77,0.74 4.71,1.36 5.82,1.83 1.1,0.47 1.97,1.16 2.59,2.06 0.64,0.9 0.95,2.02 0.95,3.36 0,1.31 -0.38,2.54 -1.15,3.69 -0.77,1.16 -1.87,2.05 -3.31,2.69 -1.45,0.63 -3.08,0.95 -4.9,0.95 -3.02,0 -5.32,-0.63 -6.9,-1.88 -1.59,-1.25 -2.59,-3.1 -3.03,-5.55z"/>
    <path class="fil2" d="M36.73 36.08c-0.44,0.54 -0.92,0.42 -1.46,0.85 -1.8,1.47 -4.09,2.2 -6.88,2.2 -3.52,0 -6.31,-1.17 -8.37,-3.51 -2.06,-2.33 -3.09,-5.62 -3.09,-9.84 0,-4.36 1.04,-7.75 3.12,-10.16 2.08,-2.42 4.79,-3.62 8.11,-3.62 3.21,0 5.84,1.18 7.88,3.54 2.04,2.37 3.06,5.7 3.06,9.98 0,0.26 -0.01,0.66 -0.03,1.17l-11.39 0 0 -3.61 7.1 0c-0.18,-2.19 -0.7,-3.82 -1.55,-4.92 -1.29,-1.7 -2.98,-2.55 -5.05,-2.55 -1.87,0 -3.44,0.68 -4.72,2.03 -0.96,1.02 -1.59,2.3 -1.91,3.84 -0.29,1.07 -0.47,2.46 -0.47,3.98 0,0.43 0.02,0.84 0.04,1.23l-0.01 0c0.16,2.85 0.9,5.04 2.25,6.56 1.34,1.51 2.84,2.64 4.85,2.64 0.31,0 1.83,0.23 2.12,0.19l6.4 0z"/>
    <polygon class="fil2" points="29.29,36.08 100.98,36.08 106.07,39.11 29.29,39.11 "/>
    <path class="fil2" d="M44.52 7.71l2.97 0c0.29,0 0.52,0.24 0.52,0.53l0 1.17c0,0.29 -0.23,0.53 -0.52,0.53l-2.97 0c-0.28,0 -0.52,-0.24 -0.52,-0.53l0 -1.17c0,-0.29 0.24,-0.53 0.52,-0.53z"/>
   </g>
  </g>
 </g>
</svg>
