<?xml version="1.0" encoding="UTF-8"?>
<!DOCTYPE svg PUBLIC "-//W3C//DTD SVG 1.1//EN" "http://www.w3.org/Graphics/SVG/1.1/DTD/svg11.dtd">
<!-- Creator: CorelDRAW 2020 (64-Bit) -->
<svg xmlns="http://www.w3.org/2000/svg" xml:space="preserve" width="455px" height="188px" version="1.1" style="shape-rendering:geometricPrecision; text-rendering:geometricPrecision; image-rendering:optimizeQuality; fill-rule:evenodd; clip-rule:evenodd"
viewBox="0 0 23.11 9.53"
 xmlns:xlink="http://www.w3.org/1999/xlink"
 xmlns:xodm="http://www.corel.com/coreldraw/odm/2003">
 <defs>
  <style type="text/css">
   <![CDATA[
    .fil0 {fill:#99243F}
    .fil2 {fill:#FEFEFE}
    .fil1 {fill:#FEFEFE;fill-rule:nonzero}
   ]]>
  </style>
 </defs>
 <g id="Layer_x0020_1">
  <metadata id="CorelCorpID_0Corel-Layer"/>
  <g id="_2261054487744">
   <path class="fil0" d="M11.55 0c6.39,0 11.56,2.13 11.56,4.76 0,2.63 -5.17,4.77 -11.56,4.77 -6.38,0 -11.55,-2.14 -11.55,-4.77 0,-2.63 5.17,-4.76 11.55,-4.76z"/>
   <g>
    <path class="fil1" d="M8.26 6.63l0.15 -4.44 0.76 0 0.25 4.44 -1.16 0zm4.95 -1.62l0.74 0.1c-0.08,0.5 -0.29,0.9 -0.62,1.18 -0.33,0.29 -0.74,0.43 -1.22,0.43 -0.61,0 -1.1,-0.19 -1.46,-0.59 -0.37,-0.4 -0.56,-0.96 -0.56,-1.7 0,-0.48 0.08,-0.9 0.24,-1.26 0.16,-0.35 0.4,-0.62 0.72,-0.8 0.33,-0.18 0.68,-0.27 1.06,-0.27 0.48,0 0.88,0.12 1.18,0.36 0.31,0.25 0.5,0.59 0.59,1.04l-0.73 0.11c-0.07,-0.3 -0.19,-0.52 -0.37,-0.67 -0.17,-0.15 -0.39,-0.23 -0.64,-0.23 -0.38,0 -0.69,0.14 -0.92,0.41 -0.24,0.27 -0.36,0.7 -0.36,1.29 0,0.59 0.12,1.02 0.34,1.29 0.23,0.27 0.53,0.41 0.9,0.41 0.29,0 0.54,-0.09 0.74,-0.27 0.19,-0.18 0.32,-0.46 0.37,-0.83zm1.08 0.29l0.74 -0.12c0.05,0.3 0.16,0.53 0.35,0.69 0.19,0.16 0.46,0.24 0.8,0.24 0.35,0 0.61,-0.07 0.77,-0.21 0.17,-0.14 0.26,-0.31 0.26,-0.5 0,-0.17 -0.08,-0.3 -0.23,-0.4 -0.1,-0.06 -0.36,-0.15 -0.77,-0.25 -0.55,-0.14 -0.93,-0.26 -1.14,-0.36 -0.22,-0.1 -0.38,-0.24 -0.49,-0.42 -0.11,-0.18 -0.16,-0.38 -0.16,-0.6 0,-0.19 0.04,-0.38 0.13,-0.54 0.1,-0.17 0.22,-0.31 0.37,-0.42 0.12,-0.09 0.28,-0.16 0.48,-0.22 0.2,-0.06 0.42,-0.09 0.65,-0.09 0.35,0 0.65,0.05 0.91,0.15 0.27,0.1 0.46,0.24 0.59,0.41 0.12,0.17 0.21,0.4 0.25,0.69l-0.73 0.1c-0.03,-0.23 -0.13,-0.41 -0.29,-0.54 -0.16,-0.13 -0.39,-0.2 -0.68,-0.2 -0.34,0 -0.59,0.06 -0.73,0.17 -0.15,0.12 -0.22,0.25 -0.22,0.41 0,0.09 0.03,0.18 0.09,0.26 0.06,0.08 0.15,0.15 0.28,0.2 0.08,0.03 0.3,0.09 0.67,0.19 0.53,0.14 0.9,0.26 1.11,0.35 0.21,0.09 0.37,0.22 0.49,0.39 0.13,0.17 0.19,0.39 0.19,0.64 0,0.25 -0.08,0.49 -0.22,0.71 -0.15,0.22 -0.36,0.39 -0.64,0.51 -0.27,0.12 -0.59,0.18 -0.93,0.18 -0.58,0 -1.02,-0.12 -1.32,-0.35 -0.3,-0.24 -0.5,-0.6 -0.58,-1.07z"/>
    <path class="fil2" d="M7.01 6.89c-0.08,0.1 -0.17,0.08 -0.27,0.16 -0.35,0.28 -0.79,0.42 -1.32,0.42 -0.67,0 -1.2,-0.22 -1.6,-0.67 -0.39,-0.44 -0.59,-1.07 -0.59,-1.88 0,-0.83 0.2,-1.48 0.6,-1.94 0.4,-0.46 0.91,-0.69 1.55,-0.69 0.61,0 1.11,0.23 1.5,0.68 0.39,0.45 0.59,1.09 0.59,1.9 0,0.05 0,0.13 -0.01,0.23l-2.17 0 0 -0.69 1.35 0c-0.03,-0.42 -0.13,-0.73 -0.29,-0.94 -0.25,-0.33 -0.57,-0.49 -0.97,-0.49 -0.36,0 -0.66,0.13 -0.9,0.39 -0.18,0.19 -0.3,0.44 -0.36,0.73 -0.06,0.21 -0.09,0.47 -0.09,0.76 0,0.08 0,0.16 0,0.24l0 0c0.03,0.54 0.17,0.96 0.43,1.25 0.26,0.29 0.54,0.5 0.93,0.5 0.06,0 0.35,0.05 0.4,0.04l1.22 0z"/>
    <polygon class="fil2" points="5.59,6.89 19.28,6.89 20.26,7.47 5.59,7.47 "/>
    <path class="fil2" d="M8.5 1.47l0.57 0c0.05,0 0.1,0.05 0.1,0.1l0 0.23c0,0.05 -0.05,0.1 -0.1,0.1l-0.57 0c-0.05,0 -0.1,-0.05 -0.1,-0.1l0 -0.23c0,-0.05 0.05,-0.1 0.1,-0.1z"/>
   </g>
  </g>
 </g>
</svg>
