<?xml version="1.0" encoding="UTF-8"?>
<!DOCTYPE svg PUBLIC "-//W3C//DTD SVG 1.1//EN" "http://www.w3.org/Graphics/SVG/1.1/DTD/svg11.dtd">
<!-- Creator: CorelDRAW 2020 (64-Bit) -->
<svg xmlns="http://www.w3.org/2000/svg" xml:space="preserve" width="176px" height="141px" version="1.1" style="shape-rendering:geometricPrecision; text-rendering:geometricPrecision; image-rendering:optimizeQuality; fill-rule:evenodd; clip-rule:evenodd"
viewBox="0 0 22.84 18.27"
 xmlns:xlink="http://www.w3.org/1999/xlink"
 xmlns:xodm="http://www.corel.com/coreldraw/odm/2003">
 <defs>
  <style type="text/css">
   <![CDATA[
    .fil1 {fill:#CC2500}
    .fil0 {fill:#FF9900}
   ]]>
  </style>
     <mask id="id0">
  <linearGradient id="id1" gradientUnits="userSpaceOnUse" x1="16.48" y1="9.14" x2="0.82" y2="9.57">
   <stop offset="0" style="stop-opacity:1; stop-color:white"/>
   <stop offset="1" style="stop-opacity:0; stop-color:white"/>
  </linearGradient>
      <rect style="fill:url(#id1)" width="18.26" height="18.27"/>
     </mask>
     <mask id="id2">
  <linearGradient id="id3" gradientUnits="userSpaceOnUse" x1="16.48" y1="9.14" x2="0.82" y2="9.57">
   <stop offset="0" style="stop-opacity:1; stop-color:white"/>
   <stop offset="1" style="stop-opacity:0; stop-color:white"/>
  </linearGradient>
      <rect style="fill:url(#id3)" x="3.58" y="3.6" width="11.07" height="11.07"/>
     </mask>
     <mask id="id4">
  <linearGradient id="id5" gradientUnits="userSpaceOnUse" x1="16.48" y1="9.14" x2="0.82" y2="9.57">
   <stop offset="0" style="stop-opacity:1; stop-color:white"/>
   <stop offset="1" style="stop-opacity:0; stop-color:white"/>
  </linearGradient>
      <rect style="fill:url(#id5)" x="7.18" y="0.15" width="15.66" height="10.87"/>
     </mask>
 </defs>
 <g id="Layer_x0020_1">
  <metadata id="CorelCorpID_0Corel-Layer"/>
  <g id="_2203812812976">
   <g>
    <path class="fil0" d="M18.08 7.37c-0.63,-0.06 -1.25,0.03 -1.75,0.26 0.15,1.15 0.26,1.8 0,3.02 -0.97,4.54 -5.82,7.06 -10.05,5.28 -1.55,-0.65 -2.77,-1.8 -3.51,-3.09 -1.63,-2.8 -1.26,-6.19 0.89,-8.64 0.76,-0.87 1.86,-1.57 2.95,-1.99 2.35,-0.89 5.09,-0.4 7.04,1.12 0.16,0.13 0.32,0.28 0.46,0.38 0.32,-0.17 1.06,-0.92 1.14,-1.37 -0.11,-0.06 -0.17,-0.14 -0.28,-0.22 -3.38,-2.83 -8.22,-2.81 -11.63,-0.05 -1.25,1.01 -2.63,2.78 -3.12,5.02 -0.54,2.44 -0.06,4.87 1.03,6.67 3.55,5.91 11.92,6.03 15.61,0.22 0.51,-0.8 0.97,-1.82 1.19,-2.9 0.22,-1.03 0.32,-2.71 0.03,-3.71z"/>
    <path class="fil0" d="M14.63 8.59c-0.12,0.04 -1.74,0.94 -1.76,0.98 -0.07,0.12 -0.12,1.78 -1.82,2.79 -2.91,1.74 -6.39,-0.96 -5.57,-4.15 0.26,-1.02 0.85,-1.71 1.5,-2.17 0.88,-0.61 2.06,-0.86 3.26,-0.5 0.48,0.14 0.22,0.24 0.96,-0.18l1.15 -0.64c0.02,-0.02 0.02,-0.02 0.04,-0.04 -0.24,-0.26 -1.1,-0.67 -1.55,-0.81 -0.68,-0.21 -1.36,-0.32 -2.13,-0.26 -2.56,0.2 -4.56,2.07 -5.02,4.48 -0.8,4.15 3.18,7.64 7.24,6.28 1.17,-0.39 2.18,-1.24 2.72,-2.05 0.71,-1.06 1.1,-2.13 0.98,-3.73z"/>
    <path class="fil0" d="M11.07 8.98c0.42,-0.26 0.93,-0.52 1.37,-0.77l2.75 -1.55c0.99,-0.54 1.86,-0.8 3.03,-0.67 0.76,0.08 0.28,0.22 1.18,-0.27 0.24,-0.13 0.47,-0.26 0.7,-0.39 0.32,-0.18 2.67,-1.47 2.74,-1.56l-2.72 -0.78c-0.01,-0.21 0.62,-2.33 0.71,-2.84 -0.18,0.07 -0.46,0.24 -0.63,0.34l-3.13 1.75c-0.36,0.21 -0.29,0.08 -0.46,0.5 -0.1,0.25 -0.2,0.44 -0.33,0.66 -0.49,0.82 -1.11,1.36 -2.04,1.85 -0.7,0.36 -1.78,0.99 -2.49,1.39 -0.42,0.24 -0.83,0.46 -1.25,0.7 -0.36,0.21 -0.24,0.1 -0.62,-0.07 -1.23,-0.54 -2.76,0.39 -2.7,1.87 0.04,1.06 0.92,1.92 2.03,1.88 1.07,-0.04 1.88,-0.92 1.86,-2.04z"/>
   </g>
   <g>
    <path class="fil1" style="mask:url(#id0)" d="M18.08 7.37c-0.63,-0.06 -1.25,0.03 -1.75,0.26 0.15,1.15 0.26,1.8 0,3.02 -0.97,4.54 -5.82,7.06 -10.05,5.28 -1.55,-0.65 -2.77,-1.8 -3.51,-3.09 -1.63,-2.8 -1.26,-6.19 0.89,-8.64 0.76,-0.87 1.86,-1.57 2.95,-1.99 2.35,-0.89 5.09,-0.4 7.04,1.12 0.16,0.13 0.32,0.28 0.46,0.38 0.32,-0.17 1.06,-0.92 1.14,-1.37 -0.11,-0.06 -0.17,-0.14 -0.28,-0.22 -3.38,-2.83 -8.22,-2.81 -11.63,-0.05 -1.25,1.01 -2.63,2.78 -3.12,5.02 -0.54,2.44 -0.06,4.87 1.03,6.67 3.55,5.91 11.92,6.03 15.61,0.22 0.51,-0.8 0.97,-1.82 1.19,-2.9 0.22,-1.03 0.32,-2.71 0.03,-3.71z"/>
    <path class="fil1" style="mask:url(#id2)" d="M14.63 8.59c-0.12,0.04 -1.74,0.94 -1.76,0.98 -0.07,0.12 -0.12,1.78 -1.82,2.79 -2.91,1.74 -6.39,-0.96 -5.57,-4.15 0.26,-1.02 0.85,-1.71 1.5,-2.17 0.88,-0.61 2.06,-0.86 3.26,-0.5 0.48,0.14 0.22,0.24 0.96,-0.18l1.15 -0.64c0.02,-0.02 0.02,-0.02 0.04,-0.04 -0.24,-0.26 -1.1,-0.67 -1.55,-0.81 -0.68,-0.21 -1.36,-0.32 -2.13,-0.26 -2.56,0.2 -4.56,2.07 -5.02,4.48 -0.8,4.15 3.18,7.64 7.24,6.28 1.17,-0.39 2.18,-1.24 2.72,-2.05 0.71,-1.06 1.1,-2.13 0.98,-3.73z"/>
    <path class="fil1" style="mask:url(#id4)" d="M11.07 8.98c0.42,-0.26 0.93,-0.52 1.37,-0.77l2.75 -1.55c0.99,-0.54 1.86,-0.8 3.03,-0.67 0.76,0.08 0.28,0.22 1.18,-0.27 0.24,-0.13 0.47,-0.26 0.7,-0.39 0.32,-0.18 2.67,-1.47 2.74,-1.56l-2.72 -0.78c-0.01,-0.21 0.62,-2.33 0.71,-2.84 -0.18,0.07 -0.46,0.24 -0.63,0.34l-3.13 1.75c-0.36,0.21 -0.29,0.08 -0.46,0.5 -0.1,0.25 -0.2,0.44 -0.33,0.66 -0.49,0.82 -1.11,1.36 -2.04,1.85 -0.7,0.36 -1.78,0.99 -2.49,1.39 -0.42,0.24 -0.83,0.46 -1.25,0.7 -0.36,0.21 -0.24,0.1 -0.62,-0.07 -1.23,-0.54 -2.76,0.39 -2.7,1.87 0.04,1.06 0.92,1.92 2.03,1.88 1.07,-0.04 1.88,-0.92 1.86,-2.04z"/>
   </g>
  </g>
 </g>
</svg>
